<mxfile host="app.diagrams.net" agent="Mozilla/5.0 (Windows NT 10.0; Win64; x64) AppleWebKit/537.36 (KHTML, like Gecko) Chrome/131.0.0.0 Safari/537.36" version="24.8.6">
  <diagram name="Page-1" id="nzTYGpgPUdgW_2lGvlDp">
    <mxGraphModel grid="0" page="1" gridSize="10" guides="1" tooltips="1" connect="1" arrows="1" fold="1" pageScale="1" pageWidth="850" pageHeight="1100" math="0" shadow="0">
      <root>
        <mxCell id="0" />
        <mxCell id="1" parent="0" />
        <mxCell id="QEG5jgA1LA05SdxWAVT9-53" style="edgeStyle=orthogonalEdgeStyle;rounded=0;orthogonalLoop=1;jettySize=auto;html=1;exitX=0.25;exitY=1;exitDx=0;exitDy=0;entryX=0.5;entryY=1;entryDx=0;entryDy=0;strokeWidth=2;" edge="1" parent="1" source="QEG5jgA1LA05SdxWAVT9-2" target="QEG5jgA1LA05SdxWAVT9-22">
          <mxGeometry relative="1" as="geometry">
            <Array as="points">
              <mxPoint x="392" y="317" />
              <mxPoint x="392" y="483" />
              <mxPoint x="339" y="483" />
              <mxPoint x="339" y="584" />
              <mxPoint x="420" y="584" />
            </Array>
          </mxGeometry>
        </mxCell>
        <mxCell id="QEG5jgA1LA05SdxWAVT9-55" style="edgeStyle=orthogonalEdgeStyle;rounded=0;orthogonalLoop=1;jettySize=auto;html=1;exitX=0.5;exitY=1;exitDx=0;exitDy=0;entryX=0.25;entryY=1;entryDx=0;entryDy=0;strokeWidth=2;strokeColor=#FF3333;" edge="1" parent="1" source="QEG5jgA1LA05SdxWAVT9-2" target="QEG5jgA1LA05SdxWAVT9-22">
          <mxGeometry relative="1" as="geometry">
            <Array as="points">
              <mxPoint x="407" y="317" />
              <mxPoint x="407" y="492" />
              <mxPoint x="351" y="492" />
              <mxPoint x="351" y="576" />
              <mxPoint x="390" y="576" />
            </Array>
          </mxGeometry>
        </mxCell>
        <mxCell id="QEG5jgA1LA05SdxWAVT9-57" style="edgeStyle=orthogonalEdgeStyle;rounded=0;orthogonalLoop=1;jettySize=auto;html=1;exitX=0.25;exitY=1;exitDx=0;exitDy=0;entryX=0;entryY=0.5;entryDx=0;entryDy=0;strokeWidth=2;strokeColor=#FF8000;" edge="1" parent="1" source="QEG5jgA1LA05SdxWAVT9-2" target="QEG5jgA1LA05SdxWAVT9-21">
          <mxGeometry relative="1" as="geometry">
            <Array as="points">
              <mxPoint x="380" y="466" />
              <mxPoint x="324" y="466" />
              <mxPoint x="324" y="665" />
            </Array>
          </mxGeometry>
        </mxCell>
        <mxCell id="QEG5jgA1LA05SdxWAVT9-2" value="IR SENSOR FRONT" style="rounded=1;whiteSpace=wrap;html=1;" vertex="1" parent="1">
          <mxGeometry x="340" y="227" width="160" height="90" as="geometry" />
        </mxCell>
        <mxCell id="QEG5jgA1LA05SdxWAVT9-47" style="edgeStyle=orthogonalEdgeStyle;rounded=0;orthogonalLoop=1;jettySize=auto;html=1;entryX=0.5;entryY=0;entryDx=0;entryDy=0;strokeWidth=3;" edge="1" parent="1" source="QEG5jgA1LA05SdxWAVT9-3" target="QEG5jgA1LA05SdxWAVT9-5">
          <mxGeometry relative="1" as="geometry">
            <Array as="points">
              <mxPoint x="260" y="86" />
            </Array>
          </mxGeometry>
        </mxCell>
        <mxCell id="QEG5jgA1LA05SdxWAVT9-49" style="edgeStyle=orthogonalEdgeStyle;rounded=0;orthogonalLoop=1;jettySize=auto;html=1;exitX=0;exitY=1;exitDx=0;exitDy=0;entryX=0.75;entryY=0;entryDx=0;entryDy=0;strokeColor=#FF3333;strokeWidth=3;" edge="1" parent="1" source="QEG5jgA1LA05SdxWAVT9-3" target="QEG5jgA1LA05SdxWAVT9-5">
          <mxGeometry relative="1" as="geometry">
            <Array as="points">
              <mxPoint x="310" y="143" />
            </Array>
          </mxGeometry>
        </mxCell>
        <mxCell id="QEG5jgA1LA05SdxWAVT9-50" style="edgeStyle=orthogonalEdgeStyle;rounded=0;orthogonalLoop=1;jettySize=auto;html=1;exitX=1;exitY=1;exitDx=0;exitDy=0;entryX=0.25;entryY=0;entryDx=0;entryDy=0;strokeColor=#FF3333;strokeWidth=3;" edge="1" parent="1" source="QEG5jgA1LA05SdxWAVT9-3" target="QEG5jgA1LA05SdxWAVT9-4">
          <mxGeometry relative="1" as="geometry">
            <Array as="points">
              <mxPoint x="530" y="143" />
            </Array>
          </mxGeometry>
        </mxCell>
        <mxCell id="QEG5jgA1LA05SdxWAVT9-51" style="edgeStyle=orthogonalEdgeStyle;rounded=0;orthogonalLoop=1;jettySize=auto;html=1;exitX=1;exitY=0.5;exitDx=0;exitDy=0;entryX=0.5;entryY=0;entryDx=0;entryDy=0;strokeWidth=3;" edge="1" parent="1" source="QEG5jgA1LA05SdxWAVT9-3" target="QEG5jgA1LA05SdxWAVT9-4">
          <mxGeometry relative="1" as="geometry" />
        </mxCell>
        <mxCell id="QEG5jgA1LA05SdxWAVT9-3" value="LIP-PO BATTERY" style="ellipse;whiteSpace=wrap;html=1;aspect=fixed;" vertex="1" parent="1">
          <mxGeometry x="345" y="6" width="160" height="160" as="geometry" />
        </mxCell>
        <mxCell id="QEG5jgA1LA05SdxWAVT9-43" style="edgeStyle=orthogonalEdgeStyle;rounded=0;orthogonalLoop=1;jettySize=auto;html=1;exitX=0.25;exitY=1;exitDx=0;exitDy=0;entryX=1;entryY=0.5;entryDx=0;entryDy=0;strokeWidth=2;strokeColor=#FFFF00;" edge="1" parent="1" source="QEG5jgA1LA05SdxWAVT9-4" target="QEG5jgA1LA05SdxWAVT9-20">
          <mxGeometry relative="1" as="geometry">
            <Array as="points">
              <mxPoint x="543" y="450" />
              <mxPoint x="543" y="795" />
            </Array>
          </mxGeometry>
        </mxCell>
        <mxCell id="QEG5jgA1LA05SdxWAVT9-44" style="edgeStyle=orthogonalEdgeStyle;rounded=0;orthogonalLoop=1;jettySize=auto;html=1;exitX=0.5;exitY=1;exitDx=0;exitDy=0;entryX=0.75;entryY=0;entryDx=0;entryDy=0;strokeWidth=2;" edge="1" parent="1" source="QEG5jgA1LA05SdxWAVT9-4" target="QEG5jgA1LA05SdxWAVT9-22">
          <mxGeometry relative="1" as="geometry" />
        </mxCell>
        <mxCell id="QEG5jgA1LA05SdxWAVT9-45" style="edgeStyle=orthogonalEdgeStyle;rounded=0;orthogonalLoop=1;jettySize=auto;html=1;exitX=0.75;exitY=1;exitDx=0;exitDy=0;entryX=0.5;entryY=0;entryDx=0;entryDy=0;strokeWidth=2;strokeColor=#FF3333;" edge="1" parent="1" source="QEG5jgA1LA05SdxWAVT9-4" target="QEG5jgA1LA05SdxWAVT9-22">
          <mxGeometry relative="1" as="geometry">
            <Array as="points">
              <mxPoint x="630" y="462" />
              <mxPoint x="420" y="462" />
            </Array>
          </mxGeometry>
        </mxCell>
        <mxCell id="QEG5jgA1LA05SdxWAVT9-4" value="ELECTRONIC SPEED CONTROLLER" style="rounded=0;whiteSpace=wrap;html=1;" vertex="1" parent="1">
          <mxGeometry x="480" y="360" width="200" height="90" as="geometry" />
        </mxCell>
        <mxCell id="QEG5jgA1LA05SdxWAVT9-37" style="edgeStyle=orthogonalEdgeStyle;rounded=0;orthogonalLoop=1;jettySize=auto;html=1;exitX=0.75;exitY=1;exitDx=0;exitDy=0;entryX=0;entryY=0.5;entryDx=0;entryDy=0;strokeWidth=2;strokeColor=#FF3333;" edge="1" parent="1" source="QEG5jgA1LA05SdxWAVT9-5" target="QEG5jgA1LA05SdxWAVT9-13">
          <mxGeometry relative="1" as="geometry">
            <Array as="points">
              <mxPoint x="284" y="450" />
              <mxPoint x="284" y="855" />
            </Array>
          </mxGeometry>
        </mxCell>
        <mxCell id="QEG5jgA1LA05SdxWAVT9-38" style="edgeStyle=orthogonalEdgeStyle;rounded=0;orthogonalLoop=1;jettySize=auto;html=1;exitX=0.5;exitY=1;exitDx=0;exitDy=0;entryX=0;entryY=0.5;entryDx=0;entryDy=0;strokeWidth=2;" edge="1" parent="1" source="QEG5jgA1LA05SdxWAVT9-5" target="QEG5jgA1LA05SdxWAVT9-15">
          <mxGeometry relative="1" as="geometry" />
        </mxCell>
        <mxCell id="QEG5jgA1LA05SdxWAVT9-42" style="edgeStyle=orthogonalEdgeStyle;rounded=0;orthogonalLoop=1;jettySize=auto;html=1;exitX=1;exitY=1;exitDx=0;exitDy=0;entryX=0;entryY=0.5;entryDx=0;entryDy=0;strokeWidth=2;strokeColor=#FFFF00;" edge="1" parent="1" source="QEG5jgA1LA05SdxWAVT9-5" target="QEG5jgA1LA05SdxWAVT9-18">
          <mxGeometry relative="1" as="geometry">
            <Array as="points">
              <mxPoint x="308" y="450" />
              <mxPoint x="308" y="795" />
            </Array>
          </mxGeometry>
        </mxCell>
        <mxCell id="QEG5jgA1LA05SdxWAVT9-5" value="ELECTRONIC SPEED CONTROLLER" style="rounded=0;whiteSpace=wrap;html=1;" vertex="1" parent="1">
          <mxGeometry x="160" y="360" width="200" height="90" as="geometry" />
        </mxCell>
        <mxCell id="QEG5jgA1LA05SdxWAVT9-27" style="edgeStyle=orthogonalEdgeStyle;rounded=0;orthogonalLoop=1;jettySize=auto;html=1;exitX=0;exitY=0;exitDx=0;exitDy=0;entryX=0;entryY=0.75;entryDx=0;entryDy=0;strokeColor=#fbfbfb;" edge="1" parent="1" source="QEG5jgA1LA05SdxWAVT9-6" target="QEG5jgA1LA05SdxWAVT9-5">
          <mxGeometry relative="1" as="geometry" />
        </mxCell>
        <mxCell id="QEG5jgA1LA05SdxWAVT9-28" style="edgeStyle=orthogonalEdgeStyle;rounded=0;orthogonalLoop=1;jettySize=auto;html=1;exitX=0;exitY=0.5;exitDx=0;exitDy=0;entryX=0;entryY=0.5;entryDx=0;entryDy=0;strokeWidth=2;" edge="1" parent="1" source="QEG5jgA1LA05SdxWAVT9-6" target="QEG5jgA1LA05SdxWAVT9-5">
          <mxGeometry relative="1" as="geometry" />
        </mxCell>
        <mxCell id="QEG5jgA1LA05SdxWAVT9-29" style="edgeStyle=orthogonalEdgeStyle;rounded=0;orthogonalLoop=1;jettySize=auto;html=1;exitX=0;exitY=1;exitDx=0;exitDy=0;entryX=0;entryY=0.25;entryDx=0;entryDy=0;strokeColor=#FF3333;strokeWidth=2;" edge="1" parent="1" source="QEG5jgA1LA05SdxWAVT9-6" target="QEG5jgA1LA05SdxWAVT9-5">
          <mxGeometry relative="1" as="geometry">
            <Array as="points">
              <mxPoint x="61" y="711" />
              <mxPoint x="61" y="383" />
            </Array>
          </mxGeometry>
        </mxCell>
        <mxCell id="QEG5jgA1LA05SdxWAVT9-30" style="edgeStyle=orthogonalEdgeStyle;rounded=0;orthogonalLoop=1;jettySize=auto;html=1;exitX=0;exitY=0;exitDx=0;exitDy=0;entryX=0;entryY=0.75;entryDx=0;entryDy=0;strokeColor=#FFFF66;strokeWidth=2;" edge="1" parent="1" source="QEG5jgA1LA05SdxWAVT9-6" target="QEG5jgA1LA05SdxWAVT9-5">
          <mxGeometry relative="1" as="geometry" />
        </mxCell>
        <mxCell id="QEG5jgA1LA05SdxWAVT9-6" value="MOTOR L" style="ellipse;whiteSpace=wrap;html=1;aspect=fixed;" vertex="1" parent="1">
          <mxGeometry x="120" y="600" width="130" height="130" as="geometry" />
        </mxCell>
        <mxCell id="QEG5jgA1LA05SdxWAVT9-31" style="edgeStyle=orthogonalEdgeStyle;rounded=0;orthogonalLoop=1;jettySize=auto;html=1;exitX=1;exitY=0;exitDx=0;exitDy=0;entryX=1;entryY=0.75;entryDx=0;entryDy=0;strokeColor=#FFFF00;strokeWidth=2;" edge="1" parent="1" source="QEG5jgA1LA05SdxWAVT9-7" target="QEG5jgA1LA05SdxWAVT9-4">
          <mxGeometry relative="1" as="geometry" />
        </mxCell>
        <mxCell id="QEG5jgA1LA05SdxWAVT9-32" style="edgeStyle=orthogonalEdgeStyle;rounded=0;orthogonalLoop=1;jettySize=auto;html=1;exitX=1;exitY=0.5;exitDx=0;exitDy=0;entryX=1;entryY=0.5;entryDx=0;entryDy=0;strokeWidth=2;" edge="1" parent="1" source="QEG5jgA1LA05SdxWAVT9-7" target="QEG5jgA1LA05SdxWAVT9-4">
          <mxGeometry relative="1" as="geometry" />
        </mxCell>
        <mxCell id="QEG5jgA1LA05SdxWAVT9-33" style="edgeStyle=orthogonalEdgeStyle;rounded=0;orthogonalLoop=1;jettySize=auto;html=1;exitX=1;exitY=1;exitDx=0;exitDy=0;entryX=1;entryY=0.25;entryDx=0;entryDy=0;strokeColor=#FF0000;strokeWidth=2;" edge="1" parent="1" source="QEG5jgA1LA05SdxWAVT9-7" target="QEG5jgA1LA05SdxWAVT9-4">
          <mxGeometry relative="1" as="geometry">
            <Array as="points">
              <mxPoint x="775" y="711" />
              <mxPoint x="775" y="383" />
            </Array>
          </mxGeometry>
        </mxCell>
        <mxCell id="QEG5jgA1LA05SdxWAVT9-7" value="MOTOR R" style="ellipse;whiteSpace=wrap;html=1;aspect=fixed;" vertex="1" parent="1">
          <mxGeometry x="590" y="600" width="130" height="130" as="geometry" />
        </mxCell>
        <mxCell id="QEG5jgA1LA05SdxWAVT9-46" style="edgeStyle=orthogonalEdgeStyle;rounded=0;orthogonalLoop=1;jettySize=auto;html=1;exitX=0.75;exitY=1;exitDx=0;exitDy=0;entryX=1;entryY=0.5;entryDx=0;entryDy=0;strokeWidth=2;" edge="1" parent="1" source="QEG5jgA1LA05SdxWAVT9-22" target="QEG5jgA1LA05SdxWAVT9-16">
          <mxGeometry relative="1" as="geometry">
            <Array as="points">
              <mxPoint x="450" y="581" />
              <mxPoint x="577" y="581" />
              <mxPoint x="577" y="825" />
            </Array>
          </mxGeometry>
        </mxCell>
        <mxCell id="QEG5jgA1LA05SdxWAVT9-22" value="TERMINAL" style="rounded=0;whiteSpace=wrap;html=1;" vertex="1" parent="1">
          <mxGeometry x="360" y="500" width="120" height="60" as="geometry" />
        </mxCell>
        <mxCell id="QEG5jgA1LA05SdxWAVT9-23" value="" style="group" connectable="0" vertex="1" parent="1">
          <mxGeometry x="328" y="610" width="195" height="260" as="geometry" />
        </mxCell>
        <mxCell id="QEG5jgA1LA05SdxWAVT9-11" value="" style="rounded=0;whiteSpace=wrap;html=1;rotation=-90;movable=1;resizable=1;rotatable=1;deletable=1;editable=1;locked=0;connectable=1;" vertex="1" parent="QEG5jgA1LA05SdxWAVT9-23">
          <mxGeometry x="-43.33333333333333" y="40" width="281.66666666666663" height="180" as="geometry" />
        </mxCell>
        <mxCell id="QEG5jgA1LA05SdxWAVT9-12" value="ESP-WROOM-32" style="text;html=1;align=center;verticalAlign=middle;whiteSpace=wrap;rounded=0;movable=1;resizable=1;rotatable=1;deletable=1;editable=1;locked=0;connectable=1;" vertex="1" parent="QEG5jgA1LA05SdxWAVT9-23">
          <mxGeometry x="43.33333333333333" y="90" width="108.33333333333333" height="80" as="geometry" />
        </mxCell>
        <mxCell id="QEG5jgA1LA05SdxWAVT9-13" value="5V" style="text;html=1;align=center;verticalAlign=middle;whiteSpace=wrap;rounded=0;movable=1;resizable=1;rotatable=1;deletable=1;editable=1;locked=0;connectable=1;" vertex="1" parent="QEG5jgA1LA05SdxWAVT9-23">
          <mxGeometry y="230" width="65" height="30" as="geometry" />
        </mxCell>
        <mxCell id="QEG5jgA1LA05SdxWAVT9-14" value="3.3 V" style="text;html=1;align=center;verticalAlign=middle;whiteSpace=wrap;rounded=0;movable=1;resizable=1;rotatable=1;deletable=1;editable=1;locked=0;connectable=1;" vertex="1" parent="QEG5jgA1LA05SdxWAVT9-23">
          <mxGeometry x="130" y="230" width="65" height="30" as="geometry" />
        </mxCell>
        <mxCell id="QEG5jgA1LA05SdxWAVT9-15" value="GND" style="text;html=1;align=center;verticalAlign=middle;whiteSpace=wrap;rounded=0;movable=1;resizable=1;rotatable=1;deletable=1;editable=1;locked=0;connectable=1;" vertex="1" parent="QEG5jgA1LA05SdxWAVT9-23">
          <mxGeometry y="200" width="65" height="30" as="geometry" />
        </mxCell>
        <mxCell id="QEG5jgA1LA05SdxWAVT9-16" value="GND" style="text;html=1;align=center;verticalAlign=middle;whiteSpace=wrap;rounded=0;movable=1;resizable=1;rotatable=1;deletable=1;editable=1;locked=0;connectable=1;" vertex="1" parent="QEG5jgA1LA05SdxWAVT9-23">
          <mxGeometry x="130" y="200" width="65" height="30" as="geometry" />
        </mxCell>
        <mxCell id="QEG5jgA1LA05SdxWAVT9-18" value="13" style="text;html=1;align=center;verticalAlign=middle;whiteSpace=wrap;rounded=0;movable=1;resizable=1;rotatable=1;deletable=1;editable=1;locked=0;connectable=1;" vertex="1" parent="QEG5jgA1LA05SdxWAVT9-23">
          <mxGeometry y="170" width="65" height="30" as="geometry" />
        </mxCell>
        <mxCell id="QEG5jgA1LA05SdxWAVT9-20" value="15" style="text;html=1;align=center;verticalAlign=middle;whiteSpace=wrap;rounded=0;movable=1;resizable=1;rotatable=1;deletable=1;editable=1;locked=0;connectable=1;" vertex="1" parent="QEG5jgA1LA05SdxWAVT9-23">
          <mxGeometry x="130" y="170" width="65" height="30" as="geometry" />
        </mxCell>
        <mxCell id="QEG5jgA1LA05SdxWAVT9-21" value="34" style="text;html=1;align=center;verticalAlign=middle;whiteSpace=wrap;rounded=0;movable=1;resizable=1;rotatable=1;deletable=1;editable=1;locked=0;connectable=1;" vertex="1" parent="QEG5jgA1LA05SdxWAVT9-23">
          <mxGeometry y="40" width="65" height="30" as="geometry" />
        </mxCell>
        <mxCell id="QEG5jgA1LA05SdxWAVT9-24" value="" style="endArrow=none;html=1;rounded=0;strokeColor=#FFFFFF;" edge="1" parent="1">
          <mxGeometry width="50" height="50" relative="1" as="geometry">
            <mxPoint x="590" y="610" as="sourcePoint" />
            <mxPoint x="730" y="450" as="targetPoint" />
          </mxGeometry>
        </mxCell>
      </root>
    </mxGraphModel>
  </diagram>
</mxfile>
